<!DOCTYPE svg PUBLIC "-//W3C//DTD SVG 20010904//EN" "http://www.w3.org/TR/2001/REC-SVG-20010904/DTD/svg10.dtd">
<svg version="1.0" xmlns="http://www.w3.org/2000/svg" width="56px" height="60px" viewBox="0 0 560 600" preserveAspectRatio="xMidYMid meet">
<g id="layer1" fill="#000000" stroke="none">
 <path d="M238 589 c-10 -5 -29 -30 -44 -54 -25 -43 -28 -45 -72 -45 -29 0 -59 -8 -79 -20 -29 -17 -33 -25 -33 -63 0 -30 8 -56 23 -78 l23 -34 -23 -34 c-31 -46 -31 -100 1 -130 19 -18 38 -24 81 -25 55 -2 58 -3 76 -38 50 -97 147 -90 189 12 12 29 15 30 72 30 50 0 63 4 85 26 21 21 25 32 20 64 -3 22 -15 53 -27 70 -21 30 -21 30 -2 58 64 90 26 162 -86 162 -46 0 -51 2 -62 30 -26 63 -95 97 -142 69z m70 -35 c12 -8 29 -28 37 -44 15 -28 14 -29 -21 -40 -36 -12 -99 -6 -109 10 -8 13 21 67 42 79 24 14 25 14 51 -5z m-156 -134 c-2 -25 -13 -43 -35 -62 -18 -15 -35 -28 -39 -28 -11 0 -38 56 -38 80 0 24 51 51 90 47 22 -2 25 -6 22 -37z m341 31 c13 -5 27 -18 29 -29 6 -21 -14 -76 -31 -86 -16 -10 -69 35 -77 64 -3 14 -8 33 -11 43 -3 14 2 17 31 17 19 0 46 -4 59 -9z m-255 -16 c-2 -1 -13 -8 -25 -14 -20 -10 -23 -9 -23 7 0 15 5 18 25 14 14 -2 25 -6 23 -7z m136 -24 c-1 -1 -12 4 -24 12 -20 14 -20 15 -3 19 15 3 37 -20 27 -31z m11 -112 l0 -62 -49 -30 -49 -31 -54 29 -54 28 3 66 3 66 50 27 50 27 50 -29 50 -29 0 -62z m-245 -1 c0 -30 -1 -31 -17 -16 -13 14 -14 20 -3 32 18 22 20 20 20 -16z m304 13 c17 -19 17 -20 -3 -31 -19 -10 -21 -8 -21 20 0 35 1 36 24 11z m-298 -96 c1 0 4 -17 8 -37 l7 -38 -42 0 c-45 0 -79 21 -79 49 0 9 9 31 21 50 l20 34 32 -29 c18 -16 32 -29 33 -29z m356 33 c43 -66 21 -108 -55 -108 l-43 0 4 35 c3 26 14 44 40 65 20 17 37 30 38 30 1 0 8 -10 16 -22z m-122 -65 c-1 -20 -18 -33 -34 -27 -17 6 -16 8 5 20 29 16 29 16 29 7z m-166 -9 c18 -7 12 -24 -10 -24 -8 0 -14 7 -14 15 0 17 2 18 24 9z m107 -45 l38 -12 -20 -38 c-21 -43 -59 -60 -85 -38 -16 13 -48 69 -42 74 3 2 58 22 67 24 2 1 21 -4 42 -10z"/>
 <path d="M237 342 c-37 -40 -9 -102 46 -102 28 0 57 32 57 62 0 25 -36 58 -63 58 -13 0 -31 -8 -40 -18z m63 -41 c0 -27 -19 -36 -37 -18 -18 18 -9 37 18 37 12 0 19 -7 19 -19z"/>
 </g>

</svg>