<!DOCTYPE svg PUBLIC "-//W3C//DTD SVG 20010904//EN" "http://www.w3.org/TR/2001/REC-SVG-20010904/DTD/svg10.dtd">
<svg version="1.0" xmlns="http://www.w3.org/2000/svg" width="72px" height="60px" viewBox="0 0 720 600" preserveAspectRatio="xMidYMid meet">
<g id="layer1" fill="#e74545" stroke="none">
 <path d="M0 465 c0 -112 2 -135 15 -135 12 0 15 23 17 123 l3 122 325 0 325 0 3 -122 c2 -100 5 -123 17 -123 13 0 15 23 15 135 l0 135 -360 0 -360 0 0 -135z"/>
 <path d="M290 420 c0 -18 7 -20 70 -20 63 0 70 2 70 20 0 18 -7 20 -70 20 -63 0 -70 -2 -70 -20z"/>
 <path d="M185 361 c-38 -10 -96 -31 -128 -46 l-57 -27 0 -79 0 -79 360 0 360 0 0 79 0 79 -42 21 c-106 51 -159 63 -293 67 -106 3 -143 1 -200 -15z m371 -47 c124 -35 134 -43 134 -104 l0 -50 -331 0 -330 0 3 53 c3 49 5 53 39 70 126 61 335 75 485 31z"/>
 <path d="M220 50 l0 -50 140 0 140 0 0 50 c0 37 -4 50 -14 50 -10 0 -16 -13 -18 -37 l-3 -38 -105 0 -105 0 -3 38 c-2 24 -8 37 -18 37 -10 0 -14 -13 -14 -50z"/>
 </g>

</svg>