<!DOCTYPE svg PUBLIC "-//W3C//DTD SVG 20010904//EN" "http://www.w3.org/TR/2001/REC-SVG-20010904/DTD/svg10.dtd">
<svg version="1.0" xmlns="http://www.w3.org/2000/svg" width="41px" height="60px" viewBox="0 0 410 600" preserveAspectRatio="xMidYMid meet">
<g id="layer1" fill="#7b7b7b" stroke="none">
 <path d="M153 589 c-38 -11 -45 -39 -10 -39 41 1 131 26 135 38 5 15 -76 15 -125 1z"/>
 <path d="M183 542 c-49 -12 -63 -20 -63 -34 0 -22 -4 -22 90 0 54 13 76 22 78 35 4 21 -19 21 -105 -1z"/>
 <path d="M195 492 c-87 -21 -95 -26 -95 -61 0 -16 -9 -36 -21 -47 -12 -10 -35 -37 -50 -58 -26 -35 -29 -47 -29 -119 0 -93 16 -128 82 -177 38 -27 49 -30 121 -30 93 0 131 18 178 83 26 36 29 47 29 121 0 88 -5 101 -65 166 -18 19 -35 47 -39 63 -7 30 -17 32 -82 16 -28 -7 -44 -17 -44 -27 0 -12 9 -14 45 -9 33 5 45 3 45 -6 0 -7 18 -30 40 -52 50 -49 70 -91 70 -149 0 -99 -63 -167 -160 -174 -107 -8 -190 66 -190 171 0 62 10 83 64 144 25 28 46 60 46 71 0 16 13 23 78 39 51 13 77 24 77 33 0 20 -20 21 -100 2z"/>
 </g>

</svg>