<!DOCTYPE svg PUBLIC "-//W3C//DTD SVG 20010904//EN" "http://www.w3.org/TR/2001/REC-SVG-20010904/DTD/svg10.dtd">
<svg version="1.0" xmlns="http://www.w3.org/2000/svg" width="79px" height="60px" viewBox="0 0 790 600" preserveAspectRatio="xMidYMid meet">
<g id="layer1" fill="#7b7b7b" stroke="none">
 <path d="M68 579 c-51 -38 -68 -79 -68 -161 0 -63 4 -80 22 -104 33 -42 59 -62 91 -69 23 -6 27 -12 27 -41 0 -43 21 -86 56 -113 36 -28 116 -29 161 -1 54 33 63 63 63 211 l0 133 33 -32 c34 -33 57 -41 57 -19 0 20 -83 97 -105 97 -22 0 -105 -77 -105 -97 0 -22 23 -14 57 19 l33 32 -1 -115 c0 -142 -11 -178 -62 -203 -33 -16 -45 -17 -78 -7 -44 13 -64 38 -73 94 -6 33 -5 37 14 37 41 0 21 27 -25 33 -94 13 -135 60 -135 154 0 58 26 105 72 130 29 16 62 18 293 18 227 0 264 -2 292 -17 97 -54 99 -228 2 -269 -27 -11 -33 -10 -41 4 -16 29 -27 19 -33 -31 -12 -85 -25 -122 -58 -159 -45 -51 -98 -73 -179 -73 -56 0 -68 -3 -68 -16 0 -14 13 -15 94 -12 88 3 97 5 133 34 50 40 99 113 107 160 6 35 12 42 56 62 69 32 90 70 90 162 0 81 -17 119 -69 158 -30 22 -35 22 -328 22 -283 -1 -299 -2 -325 -21z"/>
 </g>

</svg>