<!DOCTYPE svg PUBLIC "-//W3C//DTD SVG 20010904//EN" "http://www.w3.org/TR/2001/REC-SVG-20010904/DTD/svg10.dtd">
<svg version="1.0" xmlns="http://www.w3.org/2000/svg" width="73px" height="60px" viewBox="0 0 730 600" preserveAspectRatio="xMidYMid meet">
<g id="layer1" fill="#7b7b7b" stroke="none">
 <path d="M220 572 c0 -47 14 -52 145 -52 131 0 145 5 145 52 l0 28 -145 0 -145 0 0 -28z m258 -4 c-3 -9 -35 -13 -113 -13 -78 0 -110 4 -112 13 -4 9 23 12 112 12 89 0 116 -3 113 -12z"/>
 <path d="M350 490 c0 -19 -7 -20 -175 -20 l-175 0 0 -235 0 -235 365 0 365 0 0 235 0 235 -175 0 c-168 0 -175 1 -175 20 0 11 -7 20 -15 20 -8 0 -15 -9 -15 -20z m358 -257 l-3 -208 -340 0 -340 0 -3 208 -2 207 345 0 345 0 -2 -207z"/>
 <path d="M50 235 l0 -185 315 0 315 0 0 185 0 185 -315 0 -315 0 0 -185z m600 0 l0 -155 -285 0 -285 0 0 155 0 155 285 0 285 0 0 -155z"/>
 </g>

</svg>