<!DOCTYPE svg PUBLIC "-//W3C//DTD SVG 20010904//EN" "http://www.w3.org/TR/2001/REC-SVG-20010904/DTD/svg10.dtd">
<svg version="1.0" xmlns="http://www.w3.org/2000/svg" width="60px" height="60px" viewBox="0 0 600 600" preserveAspectRatio="xMidYMid meet">
<g id="layer1" fill="#7b7b7b" stroke="none">
 <path d="M0 573 c1 -58 47 -161 97 -218 l50 -56 -73 -71 c-93 -89 -94 -104 -21 -176 73 -72 87 -71 176 24 l72 76 75 -76 c54 -55 81 -76 100 -76 33 0 123 94 124 130 0 20 -44 69 -197 222 -197 196 -199 198 -272 223 -41 14 -87 25 -103 25 -24 0 -28 -4 -28 -27z m167 -65 c-1 -13 -10 -18 -29 -18 -23 0 -28 -4 -28 -24 0 -13 -6 -26 -14 -29 -10 -4 -21 14 -38 62 l-24 67 67 -20 c51 -16 67 -25 66 -38z m323 -302 c0 -14 -284 266 -288 284 -2 8 62 -50 142 -130 80 -80 146 -149 146 -154z m-173 112 c137 -136 143 -144 123 -156 -20 -12 -31 -4 -161 125 -130 129 -161 173 -123 173 9 0 81 -64 161 -142z m-57 -65 l145 -148 -150 145 c-82 80 -151 146 -154 148 -2 1 0 2 5 2 5 0 74 -66 154 -147z m-33 -25 c54 -53 63 -68 41 -68 -7 0 -41 -30 -75 -67 l-62 -68 -52 52 c-39 38 -50 56 -42 64 8 8 20 2 46 -20 19 -17 40 -31 46 -31 22 0 10 29 -24 58 -34 28 -35 29 -17 46 17 15 20 15 32 1 7 -8 19 -15 26 -15 18 0 18 24 -1 40 -13 10 -12 15 3 36 9 13 19 24 22 24 2 0 28 -23 57 -52z m323 -73 l24 -26 -52 -52 -52 -52 -27 28 -27 27 49 50 c27 27 52 50 55 50 4 0 17 -11 30 -25z"/>
 <path d="M375 530 c-53 -54 -67 -72 -57 -82 9 -9 16 -8 30 5 17 16 20 16 32 2 15 -18 40 -20 40 -3 0 6 -7 19 -15 28 -14 15 -13 19 4 34 18 17 20 16 46 -18 27 -35 55 -48 55 -24 0 7 -14 27 -32 45 -25 26 -29 36 -20 45 10 10 23 2 62 -38 l50 -50 -65 -67 c-65 -67 -73 -81 -56 -91 15 -10 151 133 151 158 0 31 -98 126 -131 126 -17 0 -45 -21 -94 -70z"/>
 </g>

</svg>